<?xml version="1.0" encoding="UTF-8"?>
<svg width="27px" height="27px" viewBox="0 0 27 27" version="1.1" xmlns="http://www.w3.org/2000/svg" xmlns:xlink="http://www.w3.org/1999/xlink">
    <!-- Generator: Sketch 56.2 (81672) - https://sketch.com -->
    <title>close</title>
    <desc>Created with Sketch.</desc>
    <g id="设计终稿" stroke="none" stroke-width="1" fill="none" fill-rule="evenodd">
        <g id="方案1交互视觉说明" transform="translate(-232.000000, -513.000000)" fill="#000000">
            <g id="编组-4" transform="translate(200.000000, 185.000000)">
                <g id="设计稿" transform="translate(0.000000, 255.000000)">
                    <g id="顶部导航（无返回）">
                        <path d="M47.8654718,86.5 L58.5100948,97.144623 C59.1633017,97.79783 59.1633017,98.8568878 58.5100948,99.5100948 C57.8568878,100.163302 56.79783,100.163302 56.144623,99.5100948 L45.5,88.8654718 L34.855377,99.5100948 C34.20217,100.163302 33.1431122,100.163302 32.4899052,99.5100948 C31.8366983,98.8568878 31.8366983,97.79783 32.4899052,97.144623 L43.1345282,86.5 L32.4899052,75.855377 C31.8366983,75.20217 31.8366983,74.1431122 32.4899052,73.4899052 C33.1431122,72.8366983 34.20217,72.8366983 34.855377,73.4899052 L45.5,84.1345282 L56.144623,73.4899052 C56.79783,72.8366983 57.8568878,72.8366983 58.5100948,73.4899052 C59.1633017,74.1431122 59.1633017,75.20217 58.5100948,75.855377 L47.8654718,86.5 Z" id="close"></path>
                    </g>
                </g>
            </g>
        </g>
    </g>
</svg>